<?xml version="1.0" encoding="utf-8"?>
<!-- Generator: Adobe Illustrator 16.0.0, SVG Export Plug-In . SVG Version: 6.00 Build 0)  -->
<!DOCTYPE svg PUBLIC "-//W3C//DTD SVG 1.1//EN" "http://www.w3.org/Graphics/SVG/1.1/DTD/svg11.dtd">
<svg version="1.1" id="Layer_1" xmlns="http://www.w3.org/2000/svg" xmlns:xlink="http://www.w3.org/1999/xlink" x="0px" y="0px"
	 width="864px" height="864px" viewBox="0 0 864 864" enable-background="new 0 0 864 864" xml:space="preserve">
<g>
	<path fill-rule="evenodd" clip-rule="evenodd" d="M412.346,752.55c-39.186-3.254-75.677-9.964-102.683-38.618
		c0.757-1.801,1.515-3.6,2.271-5.4c16.249,7.165,32.624,14.052,48.711,21.562c21.406,9.993,41.809,9.819,62.646-2.372
		c23.559-13.782,48.143-25.807,71.739-39.527c7.414-4.313,13.214-11.497,19.518-17.607c13.969-13.541,26.632-26.635,17.475-49.577
		c-3.841-9.627-0.638-22.063-0.638-33.224c1.502-0.066,3.006-0.133,4.508-0.198c3.104,13.718,6.209,27.434,9.861,43.573
		c6.808-5.087,11.356-7.78,15.049-11.358c26.786-25.945,58.524-43.623,91.814-60.066c17.967-8.875,33.166-24.927,47.013-40.111
		c13.641-14.958,27.104-28.024,47.33-33.644c6.91-1.919,18.602-8.451,18.383-14.209c-1.282-13.261-7.633-14.914-14.546-18.766
		c-4.442-2.476-11.545-3.664-16.652-3.436c-37.958,1.702-73.322,11.4-104.569,36.124c4.777,5.794,9.149,11.097,14.129,17.138
		c-2.582,0.659-4.616,1.797-5.275,1.257c-18.326-15.009-35.363-6.156-53.22,1.684c-18.52,8.133-37.477,15.762-56.924,21.14
		c-16.314,4.514-7.73,18.384-13.938,28.434c-9.704-18.785-27.368-18.798-43.62-17.405c-16.659,1.426-33.005,6.864-49.356,11.062
		c-2.003,0.513-3.348,4.102-4.737,6.421c-10.961,18.312-27.326,25.13-48.188,19.991c-23.218-5.719-51.889,10.562-59.527,33.441
		c-3.706,11.103-8.141,21.961-12.246,32.931c-2.012-0.696-4.023-1.394-6.035-2.09c4.929-15.896,6.711-33.931,15.66-47.092
		c9.235-13.583,25.444-22.424,37.98-36.92c-3.755,0.841-8.176,0.689-11.153,2.689c-15.464,10.392-32.039,12.503-48.386,4.418
		c-7.153-3.536-14.725-10.842-17.341-18.146c-11.822-33.006-22.995-66.33-32.361-100.104c-8.454-30.48-17.909-34.929-44.688-17.161
		c-2.134,1.416-4.312,2.766-8.412,2.553c1.099-1.836,1.763-4.286,3.362-5.414c21.326-15.041,20.752-12.477,10.62-38.437
		c-2.593-6.645-5.359-13.223-8.106-19.807c-5.495-13.183-10.68-26.968-26.952-16.405c3.133-8.07,10.582-17.652,8.923-25.246
		c-2.443-11.194-1.581-28.066-19.275-29.126c1.576-27.098-6.94-51.45-20.389-73.575c-6.707-11.033-26.574-7.472-31.06,5.443
		c-3.394,9.769-4.988,22.17-2.077,31.794c16.944,56.045,35.269,111.678,53.711,167.255c1.992,6.004,7.735,10.765,9.735,13.433
		c-1.375,23.139-2.733,46.012-4.265,71.776c25.95-3.1,48.729-5.822,71.509-8.543c0.061,0.718,0.124,1.437,0.185,2.155
		c-14.885,5.021-29.856,9.8-44.629,15.135c-13.328,4.814-21.77,15.731-21.005,28.835c3.022,51.644-2.111,105.205,25.524,152.287
		c9.532,16.242,24.596,29.237,37.125,43.705c-4.644,0.3-13.133,0.848-22.828,1.474c-4.833,31.239-9.705,62.733-14.745,95.324
		c-14.827-1.271-15.833-6.288-13.697-18.007c3.82-20.943,6.154-42.513,5.771-63.76c-0.302-16.607-2.642-34.488-9.391-49.397
		c-13.853-30.605-20.17-62.369-22.172-95.276c-2.833-46.584-4.047-93.276-7.537-139.804c-1.368-18.244-5.855-36.501-10.933-54.174
		c-15.706-54.664-32.782-108.936-48.269-163.66c-2.548-9.008-0.782-19.689,0.777-29.309c2.948-18.207,14.364-29.494,29.343-30.948
		c17.965-1.742,34.155,8.875,40.917,26.243c19.071,48.99,38.308,97.917,57.551,146.839c1.945,4.945,4.389,9.693,8.563,18.824
		c2.895-8.196,4.976-12.222,5.714-16.482c5.241-30.237,29.119-49.496,59.378-47.307c1.642,0.119,3.528,0.704,4.324,1.087
		c22.783,10.965,29.294,1.823,39.772-14.255c11.763-18.049,32.521-24.196,52.13-21.213c23.511,3.577,37.63,20.867,42.237,44.791
		c1.222,6.347,2.585,12.667,3.883,19c1.665,0.032,3.329,0.066,4.994,0.098c1.936-22.431,4.416-44.833,5.702-67.303
		c3.831-66.886,6.891-133.819,11.029-200.686c0.698-11.274,4.233-22.699,8.28-33.364c5.831-15.367,17.765-25.734,34.177-27.175
		c19.031-1.671,37.769,10.006,43.341,26.759c4.097,12.322,7.469,25.782,7,38.583c-3.08,83.995-8.045,167.924-10.809,251.926
		c-1.333,40.469,0.722,81.052,1.445,121.579c0.066,3.746,1.405,7.525,2.5,11.186c7.21,24.126,12.332,27.395,35.015,17.374
		c22.491-9.937,45.13-20.313,65.747-33.548c32.35-20.77,67.515-29.093,104.861-27.621c10.97,0.434,23.211,7.055,32.093,14.263
		c21.417,17.381,20.394,37.625-4.617,47.08c-28.936,10.94-46.329,32.671-66.566,53.197c-13.97,14.169-31.603,25.898-49.557,34.747
		c-51.092,25.185-89.43,65.242-126.629,106.269c-16.33,18.012-33.309,32.995-56.243,40.809
		c-24.441,8.327-35.176,25.828-36.233,51.061c-0.664,15.865-2.552,31.765-5.296,47.402c-0.817,4.658-2.333,13.184-9.795,12.688
		c-4.582-0.639-6.412-8.945-6.368-13.386c0.182-18.623,1.702-37.228,2.567-55.848C412.578,765.357,412.346,759.408,412.346,752.55z
		 M495.135,150.772c5.032-1.628,10.312-2.748,15.011-5.051c3.377-1.654,8.543-4.901,8.528-7.414
		c-0.136-23.964,0.158-48.082-2.606-71.813c-1.318-11.313-10.446-23.619-23.555-20.262c-8.671,2.221-16.761,5.534-22.315,20.705
		c-0.828,2.261-2.005,5.106-2.228,7.785c-3.15,37.672-6.597,75.327-9.131,113.042c-3.639,54.177-6.341,108.417-10.09,162.584
		c-0.612,8.855,2.128,12.883,9.976,15.625c8.021,2.803,15.66,6.694,23.468,10.107c-0.446,0.74-0.893,1.481-1.339,2.221
		c-14.772-0.832-29.545-1.664-49.066-2.763c9.282,8.441,14.396,13.093,21.126,19.212c-10.077-1.752-17.956-3.122-28.345-4.927
		c0,49.236,0,96.846,0,142.731c31.708-3.987,61.148-7.688,90.587-11.391c0.154-2.247,0.312-4.494,0.466-6.74
		c-17.531-6.341-35.064-12.682-52.598-19.022c0.104-1.043,0.205-2.086,0.308-3.129c19.265,2.539,38.53,5.079,55.382,7.3
		c-3.543-28.424-10.085-56.546-9.852-84.611c0.371-44.384,5.204-88.736,8.301-133.09c1.995-28.592-4.397-34.415-32.618-29.301
		c-2.584,0.469-5.256,0.458-7.888,0.669c-0.267-1.282-0.532-2.564-0.798-3.846c13.272-3.167,26.546-6.334,41.337-9.864
		c0.94-16.658,1.927-36.292,3.184-55.908C521.96,158.946,520.887,157.529,495.135,150.772z M411.116,468.678
		c-0.68,0,1.067-78.203-2.958-116.721c-3.666-35.071-26.788-54.016-58.644-35.83c-20.446,11.672-29.781,37.727-25.417,64.7
		c4.716,29.143,8.614,58.421,12.574,87.678c2.864,21.158,3.75,42.703,8.231,63.49c5.456,25.309,18.2,34.579,37.271,33.952
		c17.977-0.591,26.435-8.7,28.558-33.151C412.576,511.572,411.116,490.062,411.116,468.678z M308.689,554.925
		c15.133,4.077,22.417-7.527,25.65-22.967c1.531-7.311,1.293-15.207,0.602-22.725c-1.399-15.242-2.98-30.528-5.693-45.58
		c-5.927-32.885-12.119-65.741-19.179-98.398c-3.657-16.916-18.339-23.071-32.747-21.287c-11.118,1.375-26.325,7.682-30.901,16.415
		c-11.271,21.506-14.076,45.664-6.152,70.216c10.586,32.805,20.017,65.982,30.037,98.97
		C276.494,549.939,283.607,555.074,308.689,554.925z"/>
	<path fill-rule="evenodd" clip-rule="evenodd" d="M237.737,771.965c41.575-26.118,61.88-26.801,103.698-5.125
		c-19.262-1.576-36.043-4.721-52.601-3.816C271.689,763.96,254.759,768.82,237.737,771.965z"/>
	<path fill-rule="evenodd" clip-rule="evenodd" d="M391.025,553.698c8.255-38.813,8.255-38.813-29.506-40.587
		c10.593-9.935,26.735-11.245,36.559-2.967C406.911,517.589,404.561,536.314,391.025,553.698z"/>
	<path fill-rule="evenodd" clip-rule="evenodd" d="M283.919,509.657c9.208-11.587,21.373-15.772,31.53-9.722
		c12.284,7.315,12.948,21.258,8.107,36.284c-3.759-10.452-4.515-23.134-10.762-27.046
		C306.132,505.003,294.28,509.119,283.919,509.657z"/>
</g>
</svg>
